<?xml version="1.0" encoding="UTF-8" standalone="no"?>
<!-- Created with Inkscape (http://www.inkscape.org/) -->

<svg
   version="1.1"
   id="svg1"
   width="5333.3335"
   height="2666.6667"
   viewBox="0 0 5333.3335 2666.6667"
   sodipodi:docname="cat-02.eps"
   xmlns:inkscape="http://www.inkscape.org/namespaces/inkscape"
   xmlns:sodipodi="http://sodipodi.sourceforge.net/DTD/sodipodi-0.dtd"
   xmlns="http://www.w3.org/2000/svg"
   xmlns:svg="http://www.w3.org/2000/svg">
  <defs
     id="defs1" />
  <sodipodi:namedview
     id="namedview1"
     pagecolor="#ffffff"
     bordercolor="#000000"
     borderopacity="0.25"
     inkscape:showpageshadow="2"
     inkscape:pageopacity="0.0"
     inkscape:pagecheckerboard="0"
     inkscape:deskcolor="#d1d1d1">
    <inkscape:page
       x="0"
       y="0"
       inkscape:label="1"
       id="page1"
       width="5333.3335"
       height="2666.6667"
       margin="0"
       bleed="0" />
  </sodipodi:namedview>
  <g
     id="g1"
     inkscape:groupmode="layer"
     inkscape:label="1">
    <g
       id="group-R5">
      <path
         id="path2"
         d="M 40000,0 H 0 V 20000 H 40000 V 0"
         style="fill:#f5f6f5;fill-opacity:1;fill-rule:nonzero;stroke:none"
         transform="matrix(0.13333333,0,0,-0.13333333,0,2666.6667)" />
      <path
         id="path3"
         d="m 8802.09,6255.2 h 386.26 c 22.7,0 43.57,11.4 53.17,29 4.41,8.1 12.62,23.2 -11.02,58 -28.91,42.6 -79.05,69.2 -134.12,71.4 l -72.8,2.8 c -84.09,3.2 -163.75,41.7 -218.51,105.6 l -241.11,281.3 c -48.29,56.3 -74.89,128.2 -74.89,202.4 v 59.4 c 0,107.7 36.33,213.8 102.29,298.9 l 128.67,166.1 c 51.91,66.9 111.38,132.3 181.81,199.7 244.47,234 293.67,502.3 294.14,505 7.6,43.6 44.66,76.4 88.9,78.2 l 668.16,27.3 c 134.56,5.5 268.76,20.1 398.86,43.4 296,52.9 621.7,-51.7 789.4,-118.7 74.9,-29.9 123.8,-104 121.7,-184.4 -11.2,-442.9 -77.4,-745.8 -131,-921.9 -48.7,-160.4 -73.5,-327.4 -73.5,-496.4 v -256.2 c 0,-1.7 0.1,-3.3 0.2,-4.9 1.2,-21 21.1,-38.2 44.4,-38.2 h 343.6 c 8.4,0 15.9,5.9 17.4,13.8 4.1,21.4 15,78.2 -86.3,129.2 -83.3,42 -135.1,125.9 -135.1,219 0,89.8 23.6,178.5 68.1,256.5 l 264.1,462.1 c 39.5,69.2 74.4,137.9 103.6,204.3 81.1,184.2 174.3,322.8 277.1,411.8 63.5,55 144.9,86 229.3,87.3 227.8,3.5 331,26 372.2,39.2 80.6,25.6 166,19.8 240.4,-16.4 158.4,-77.1 276,-175.4 349.7,-292.3 67.7,-107.3 150.9,-201.7 247.5,-280.7 l 1026.2,-838.9 c 98.9,-80.9 194.3,-146.6 291.7,-200.9 54,-30.1 113.1,-72.5 175.5,-125.9 29.1,-25 66.2,-38.7 104.5,-38.7 h 348 c 23.5,0 45.4,9.3 58.6,24.8 8.1,9.5 13.6,18.6 5.2,41.4 -15.2,41.3 -56.9,69 -103.7,69 h -123.3 c -79.6,0 -157.7,28.3 -219.7,79.8 -584,484.2 -919.7,1107.1 -1037,1352.4 -27.4,57.5 -42.1,119.1 -43.5,183.1 l -27.8,1230.3 c 0,0.7 0,1.4 0,2.2 0,151.2 112.3,320.1 343.4,516.3 178.1,151.1 404.4,234.3 637.3,234.3 h 56.5 c 17.8,0 34,9.8 42.2,25.6 l 142,271.6 c 9.6,18.5 7.7,41 -4.9,57.5 l -45.2,59.2 -185.5,230.6 c -47.5,59.2 -57.6,121.2 -59.5,152.9 0,0.7 0,1.3 -0.1,2 -45.4,148.9 -316,243 -407.6,264.3 -38.4,8.9 -67.1,40.9 -72,80 l -35.8,286.7 -360,-338.7 c -15,-14 -34,-22.8 -54.4,-25 -319.7,-34.6 -601.6,-365.4 -604.4,-368.7 -199.9,-231 -496.9,-350.5 -860.6,-347.2 -250.9,2.4 -450.4,62.2 -481.5,72.1 -2099.41,509.1 -3539.56,293.5 -3807.02,245.1 -64.21,-11.7 -130.15,0.7 -185.72,34.7 -419.74,256.9 -624.1,663.1 -721.6,958.7 -106.54,322.9 -126.11,668.6 -56.59,999.7 62.91,299.6 183.94,499.3 359.76,593.6 186.11,99.9 384.39,57.5 517.98,4.3 64.48,-25.7 127.02,-62.8 185.86,-110.2 39.01,-31.5 61.14,-38.9 69.19,-40.6 3.94,5.2 10.8,17.5 17.17,40.1 26.3,93.3 -1.83,195.8 -73.4,267.5 -202.01,202.4 -448.61,253.6 -732.94,152.1 -222.2,-79.3 -382.36,-222.2 -383.96,-223.7 -432.68,-388 -541,-943.6 -322.13,-1651.6 178.89,-578.7 525.57,-1087 666.33,-1278.7 53.06,-72.2 75.47,-164.6 61.45,-253.4 L 7319.79,9185.2 c -19.38,-122.7 -58.95,-236.7 -117.61,-339 -150.48,-262.3 -398.72,-485.7 -533.3,-595.4 -44.5,-36.3 -79.82,-83.5 -102.14,-136.6 l -193.45,-459.4 c -47.08,-111.8 -82.11,-229 -104.12,-348.2 l -75.96,-411.4 c -3.34,-18.2 -5.04,-36.7 -5.04,-55.1 0,-67.4 25.36,-132.1 69.55,-177.5 47.46,-48.8 68.37,-33.4 88.6,-18.5 34.72,25.5 55.47,68.5 55.47,114.9 v 159.5 c 0,78.8 11.26,157.3 33.48,233.3 185.82,635.5 515.38,747.3 648.45,765.9 67.05,9.3 120.9,19.1 169.46,30.6 300.82,71.6 455.27,136.7 495.44,154.9 11.71,5.3 27.39,12.2 44.5,18.3 141.18,50.4 220.58,11.4 262.3,-30.3 115.52,-115.2 43.49,-352.9 18.65,-423 -143.86,-414.7 32.49,-622.2 40.06,-630.8 z M 9188.35,6067 h -402.2 c -43.92,0 -85.75,18.9 -114.78,51.9 l -697.65,793.2 c -21.6,24.3 -255.64,304.1 -77.22,818.4 34.28,97.6 42.34,201.3 26.85,226.2 -5.3,1 -24.64,2.7 -67.02,-12.4 -10.56,-3.8 -21.54,-8.6 -29.92,-12.4 -44.09,-20 -212.45,-91.1 -529.65,-166.6 -54.51,-13 -113.95,-23.8 -187.05,-34 -75.55,-10.5 -334.47,-87.3 -493.81,-632.3 -17.21,-58.9 -25.94,-119.6 -25.94,-180.5 V 6759 c 0,-106 -49.38,-205.6 -132.12,-266.5 -108.45,-79.8 -233.68,-65.3 -334.99,38.8 -79.23,81.5 -122.85,191.1 -122.85,308.8 0,29.8 2.74,59.9 8.16,89.2 l 75.97,411.4 c 24.46,132.6 63.4,262.8 115.73,387.1 l 193.44,459.5 c 34.23,81.2 88.4,153.6 156.64,209.3 124.51,101.5 353.6,307.2 489.02,543.2 47.22,82.3 79.17,174.8 94.95,274.7 l 173.89,1101.4 c 6.25,39.5 -3.68,80.6 -27.23,112.7 -146.4,199.3 -507.1,728.4 -694.45,1334.4 -107.44,347.5 -141.69,668.8 -101.78,954.9 49.05,351.7 209.83,651.9 477.89,892.3 7.46,6.7 189.63,169.3 446.52,261 353.75,126.2 675.14,58.3 929.37,-196.5 119.58,-119.8 166.07,-292.8 121.33,-451.4 -31.94,-113.3 -93.8,-154.7 -140.07,-169.4 -72.83,-23.3 -155.42,1.8 -245.51,74.4 -44.17,35.6 -90.39,63.1 -137.36,81.8 -96.47,38.4 -237.11,70.5 -359.42,4.8 -124.59,-66.8 -213.6,-223.8 -264.56,-466.5 -62.73,-298.6 -45.04,-610.6 51.13,-902.1 87.65,-265.6 270.02,-630 641.14,-857.1 16.12,-9.9 35.23,-13.4 53.97,-10.1 274.14,49.7 1750.09,271 3888.23,-248.2 2.4,-0.6 4.8,-1.3 7.2,-2 7.4,-2.5 750,-238.1 1144,217.1 12.1,14.5 314.5,370.7 695.1,429.6 l 472.8,444.7 c 25.8,24.2 63,31.9 96.4,19.9 33.3,-12 57,-41.7 61.4,-76.8 l 51,-408 c 132.2,-40.6 415.1,-152.3 481.6,-378.3 3.9,-13.1 6.2,-27.2 7.1,-43 0.3,-5.7 2.6,-26.2 18.3,-45.7 l 186.1,-231.5 c 0.5,-0.6 0.9,-1.2 1.4,-1.8 l 46,-60.1 c 56.8,-74.3 65.5,-176 22.2,-258.9 l -142,-271.7 c -40.8,-78.1 -120.9,-126.6 -209,-126.6 h -56.5 c -188.4,0 -371.4,-67.3 -515.5,-189.6 -175.4,-149 -276.3,-284.4 -277,-371.9 l 27.7,-1229.2 c 0.8,-37.2 9.3,-72.9 25.2,-106.1 87.3,-182.7 416.5,-815.5 987.3,-1288.8 28.4,-23.5 63.7,-36.4 99.6,-36.4 h 123.3 c 125.2,0 237.8,-77.2 280.2,-192 30.4,-82.3 16.8,-163.4 -38.2,-228.3 -49.1,-58 -122.8,-91.3 -202.1,-91.3 h -348 c -83.1,0 -163.7,29.8 -226.9,83.9 -52.2,44.7 -102.2,80.9 -144.7,104.6 -107.2,59.7 -211.6,131.5 -319.2,219.5 l -1026.2,839 c -112.3,91.8 -209,201.4 -287.5,325.9 -37.7,59.7 -115.5,146.9 -272.9,223.4 -30.8,15 -66.7,17.2 -101.1,6.3 -90.8,-28.8 -234.2,-45 -426.3,-48 -40.2,-0.6 -78.9,-15.3 -109,-41.3 -56.1,-48.6 -141.2,-148 -228.1,-345.4 -31.8,-72.4 -69.6,-147 -112.4,-221.9 l -264.1,-462.1 c -28.3,-49.6 -43.3,-106 -43.3,-163.1 0,-21.6 12.1,-41.1 31.5,-50.9 145,-73.1 213,-194.3 186.5,-332.7 -18.4,-96.5 -103.5,-166.6 -202.2,-166.6 h -343.6 c -123.3,0 -225.3,94.7 -232.3,215.6 -0.3,5.1 -0.4,10.4 -0.4,15.7 v 256.2 c 0,187.5 27.4,373 81.6,551.2 50.2,164.9 112.2,450 122.9,871.8 0.1,2.1 -1.3,4.1 -3.4,4.9 -120,48 -427.3,154.6 -686.4,108.2 -138.6,-24.8 -281.3,-40.3 -424.39,-46.1 l -597.78,-24.4 c -33.57,-113 -121.28,-333.3 -330.97,-534 -63.65,-61 -117.03,-119.5 -163.19,-179.1 l -128.68,-166.1 c -40.53,-52.2 -62.84,-117.5 -62.84,-183.6 v -59.4 c 0,-29.3 10.49,-57.7 29.57,-79.9 l 241.11,-281.3 c 20.78,-24.3 51,-38.9 82.9,-40.1 l 72.78,-2.8 c 114.55,-4.4 220.18,-61.8 282.54,-153.7 56.84,-83.7 64.16,-173.8 20.63,-253.7 -42.73,-78.4 -126.42,-127.2 -218.43,-127.2"
         style="fill:#2e2d2d;fill-opacity:1;fill-rule:nonzero;stroke:none"
         transform="matrix(0.13333333,0,0,-0.13333333,0,2666.6667)" />
      <path
         id="path4"
         d="m 32827.9,11751.8 58.8,-470.4 c 0,0 407.4,-94.7 476.9,-330.8 2.1,-7 3,-14.4 3.4,-21.7 1,-18.3 7.1,-59.8 38.8,-99.3 l 186.2,-231.5 45.9,-60.1 c 34.9,-45.6 40.2,-107.3 13.6,-158.2 l -142,-271.7 c -24.4,-46.8 -72.8,-76.1 -125.6,-76.1 h -56.5 c -211.2,0 -415.3,-75.3 -576.4,-212 -153.1,-130 -310.2,-298.9 -310.2,-444.6 l 27.7,-1230.3 c 1.2,-50.1 12.8,-99.4 34.4,-144.6 100.4,-210.1 432.9,-840.3 1012.1,-1320.6 45,-37.3 101.3,-58.1 159.8,-58.1 h 123.2 c 84.7,0 162.6,-51 192,-130.5 15.7,-42.5 16.1,-90.2 -21.7,-134.9 -32.2,-37.9 -80.7,-58 -130.4,-58 h -348 c -60.8,0 -119.5,21.8 -165.7,61.3 -42.8,36.7 -101.2,82.4 -160.1,115.2 -108.1,60.3 -209.6,131.9 -305.4,210.2 l -1026.2,839 c -105.1,85.9 -195.2,188.5 -267.5,303.3 -48.1,76.2 -139.2,174.1 -311.3,257.9 -53.3,25.8 -114.4,29.2 -170.8,11.3 -60.6,-19.3 -177,-40.1 -399.2,-43.6 -62.2,-0.9 -122.1,-23.5 -169.2,-64.3 -67.9,-58.8 -160.9,-170.2 -252.6,-378.6 -32.1,-72.9 -68.5,-143.9 -108,-213.1 l -264,-462.1 c -36.6,-63.9 -55.8,-136.2 -55.8,-209.8 v 0 c 0,-57.2 32.3,-109.3 83.3,-135 71.7,-36.1 160.1,-106.8 136.4,-230.9 -10,-52.5 -56.4,-90.2 -109.8,-90.2 h -343.6 c -72.1,0 -134.2,55 -138.4,126.9 -0.2,3.4 -0.3,6.8 -0.3,10.3 v 256.2 c 0,177.5 26,354 77.6,523.8 53.2,174.9 116.1,468.1 127,896.9 1,41.5 -24,79.2 -62.5,94.6 -134.3,53.7 -456.9,163.8 -738,113.4 -136,-24.3 -273.6,-39.1 -411.6,-44.7 l -668.2,-27.3 c 0,0 -49.4,-296.4 -321.8,-557.2 -61.8,-59.1 -120.1,-121.8 -172.5,-189.4 l -128.7,-166 c -53.5,-69.1 -82.5,-154 -82.5,-241.3 v -59.4 c 0,-51.8 18.5,-101.8 52.2,-141.2 l 241.1,-281.3 c 37.9,-44.2 92.5,-70.6 150.7,-72.8 l 72.8,-2.8 c 83.1,-3.2 161.6,-43.7 208.3,-112.5 30.3,-44.7 46.8,-99.1 15.9,-155.9 -26.8,-49.1 -79.9,-78.1 -135.8,-78.1 h -402.2 c -16.9,0 -33,7.3 -44.2,20 l -697.8,793.4 c 0,0 -225.4,245 -58.8,725.1 0,0 158.4,447.2 -160.7,333.3 -12.7,-4.5 -25,-9.8 -37.2,-15.4 -42.6,-19.3 -203.5,-87.1 -512.5,-160.7 -58.8,-14 -118.4,-23.9 -178.3,-32.3 -111.5,-15.5 -399.9,-113.6 -571.1,-699.1 -19.6,-67.2 -29.7,-136.9 -29.7,-206.9 v -159.5 c 0,-74.7 -33.7,-146.4 -93.8,-190.7 -54.5,-40.1 -128.7,-56.8 -211.8,28.7 -63,64.7 -96.2,152.8 -96.2,243.1 v 0 c 0,24.2 2.2,48.4 6.6,72.1 l 76,411.5 c 23.2,126.1 60.1,249.4 109.9,367.6 l 193.4,459.4 c 28.4,67.4 72.8,126.8 129.4,173 126.9,103.5 367.6,319 511.2,569.3 54.3,94.6 89.2,199.1 106.3,306.9 l 173.8,1101.3 c 10.2,64.5 -5.7,130.4 -44.3,183.1 -283.6,386.1 -1420.3,2079.2 -331.3,3055.8 0,0 692,623.7 1246.4,68.2 94,-94.1 133.5,-231.5 97.4,-359.5 -27.3,-96.8 -90.8,-164.3 -236,-47.3 -49,39.6 -103,72.7 -161.6,96.1 -204.7,81.5 -609.1,145.3 -750.8,-529.9 -66.4,-315.8 -47.3,-644.4 53.8,-950.9 99.8,-302.5 296.1,-672.1 681.4,-907.9 35.8,-21.9 78.5,-29.8 119.8,-22.3 305.7,55.3 1744.4,263.9 3849.3,-247.1 0,0 803.6,-264.6 1244.5,245 0,0 303.8,362.6 666.4,401.8 l 494.9,465.4"
         style="fill:#2e2d2d;fill-opacity:1;fill-rule:nonzero;stroke:none"
         transform="matrix(0.13333333,0,0,-0.13333333,0,2666.6667)" />
    </g>
  </g>
</svg>
