<?xml version="1.0" encoding="UTF-8"?>
<svg version="1.1" xmlns="http://www.w3.org/2000/svg" width="565" height="441">
<path d="M0 0 C5.79844776 3.81194251 10.55716908 9.276337 12.61328125 16.0078125 C13.81698948 22.20873366 13.27259619 26.83093054 10.1953125 32.296875 C8.40287273 34.85080879 6.95148093 35.97041363 4 37 C-2.67259491 37.12831913 -6.81582831 33.71655485 -12 30 C-15.06533164 28.46733418 -18.26754272 28.89723529 -21.625 28.9375 C-22.68460938 28.94426758 -22.68460938 28.94426758 -23.765625 28.95117188 C-25.51045275 28.96296125 -27.255237 28.98089676 -29 29 C-29.33 29.99 -29.66 30.98 -30 32 C-30.45375 32.433125 -30.9075 32.86625 -31.375 33.3125 C-35.58642324 37.68590106 -36.73215715 43.31627962 -37.6875 49.125 C-37.8127002 49.8785376 -37.93790039 50.6320752 -38.06689453 51.40844727 C-41.32521142 72.20626183 -37.10975621 91.76295336 -24.6875 108.8125 C-23.31114556 110.53590083 -21.93688804 112.05956469 -20.33203125 113.57421875 C-19 115 -19 115 -19 117 C-18.1028125 117.4021875 -18.1028125 117.4021875 -17.1875 117.8125 C-15.01273336 118.99308761 -13.73183488 120.26816512 -12 122 C-10.515 122.495 -10.515 122.495 -9 123 C-9 123.66 -9 124.32 -9 125 C-7.71867187 124.79503906 -6.43734375 124.59007812 -5.1171875 124.37890625 C-3.36983853 124.10647012 -1.62243993 123.83435209 0.125 123.5625 C0.96160156 123.42779297 1.79820312 123.29308594 2.66015625 123.15429688 C16.80910813 120.97344339 30.96860199 120.79384714 45.25 120.8125 C46.18017944 120.81343658 47.11035889 120.81437317 48.06872559 120.81533813 C83.20689338 120.89176474 120.75119431 123.35278701 154.65234375 133.359375 C164.38902966 136.16345465 173.46327846 137.49057898 183.625 137.5625 C184.70338135 137.57700195 185.7817627 137.59150391 186.89282227 137.60644531 C197.12655827 137.47621076 205.05232317 134.86284378 212.3125 127.5625 C212.79783203 127.09779297 213.28316406 126.63308594 213.78320312 126.15429688 C216.06350964 123.95969315 218.27022388 121.71245408 220.4375 119.40625 C223.28418146 116.73314667 226.29288808 114.81297877 229.6875 112.9375 C230.29964355 112.59098389 230.91178711 112.24446777 231.54248047 111.88745117 C235.85858205 109.49356633 240.20244658 107.58556739 244.9140625 106.08203125 C247.74318695 104.61448916 249.06322738 102.50925436 251 100 C252.60710953 98.62023767 254.25456568 97.28618709 255.9375 96 C258.77849293 93.80695283 261.36034321 91.73053064 263.6875 89 C266 87 266 87 269.8125 86.6875 C270.864375 86.790625 271.91625 86.89375 273 87 C275.15550707 91.51931943 275.62249591 95.898669 276.125 100.8125 C276.21136719 101.60076172 276.29773438 102.38902344 276.38671875 103.20117188 C276.59751064 105.13343084 276.79962896 107.06663263 277 109 C278.15048828 109.21462891 278.15048828 109.21462891 279.32421875 109.43359375 C282.05312161 110.01124472 284.44103359 110.90330011 287 112 C287 112.66 287 113.32 287 114 C287.721875 114.20625 288.44375 114.4125 289.1875 114.625 C294.35699576 117.15230904 296.73305148 121.09698063 298.8125 126.25 C300.83663456 131.19695126 303.93162544 134.90019828 307.390625 138.93359375 C309 141 309 141 309 143 C309.66 143 310.32 143 311 143 C312.22109893 149.21650365 311.78566614 153.24633321 309 159 C308.57332031 159.9384375 308.14664062 160.876875 307.70703125 161.84375 C305.58979558 166.15768863 304.00267517 169.31066082 300 172.0625 C296.48911188 173.14456973 292.82286946 173.42205581 289.1875 173.875 C279.89114011 175.07898716 273.13629341 178.41079692 266.375 184.86328125 C265 186 265 186 263 186 C262.71125 186.7425 262.4225 187.485 262.125 188.25 C261 191 261 191 259.9440918 192.62426758 C258.50042607 196.25713833 258.73590152 199.91060835 258.76953125 203.76171875 C258.76998947 204.62577835 258.77044769 205.48983795 258.7709198 206.38008118 C258.77394081 208.21507128 258.78182261 210.05005885 258.79418945 211.88500977 C258.81214014 214.63242171 258.81470093 217.37948937 258.81445312 220.12695312 C258.83068936 228.60020954 258.96057646 237.06097008 259.40625 245.5234375 C259.43898514 246.21068405 259.47172028 246.8979306 259.50544739 247.60600281 C259.84014164 253.13399492 261.15436687 257.29930223 264 262 C264.46921875 262.81726563 264.9384375 263.63453125 265.421875 264.4765625 C267.3760168 267.81069103 269.41436884 271.08409122 271.49609375 274.33984375 C271.95113281 275.05269531 272.40617187 275.76554687 272.875 276.5 C273.28492188 277.1290625 273.69484375 277.758125 274.1171875 278.40625 C275 280 275 280 275 282 C275.66 282 276.32 282 277 282 C278.50545862 283.86579151 279.91391445 285.74379646 281.3125 287.6875 C285.19536366 292.92206732 289.37303078 297.66048566 294 302.25 C294.56372314 302.81033936 295.12744629 303.37067871 295.70825195 303.94799805 C298.59368417 306.82236044 298.59368417 306.82236044 302 309 C302 309.66 302 310.32 302 311 C305.11100409 312.03700136 307.54923723 312.16883434 310.8125 312.3125 C317.06118436 312.7954901 320.24905782 314.52415204 324.875 318.6875 C326.67306887 322.38353046 326.53221368 325.97243699 326 330 C324.76705223 332.89742726 323.91463025 334.41392374 321.27099609 336.10791016 C316.38632558 338.02670031 310.80247369 337.36956148 305.625 337.375 C304.40554688 337.39949219 303.18609375 337.42398437 301.9296875 337.44921875 C291.03125616 337.4849123 291.03125616 337.4849123 286 333 C285.28457031 332.53078125 284.56914062 332.0615625 283.83203125 331.578125 C275.96254107 326.40283165 268.32956165 320.91649569 261 315 C260.15179688 314.32839844 259.30359375 313.65679687 258.4296875 312.96484375 C257.16511719 311.96130859 257.16511719 311.96130859 255.875 310.9375 C255.02679688 310.26589844 254.17859375 309.59429687 253.3046875 308.90234375 C251.41215183 307.3401999 249.72814763 305.73281829 248 304 C246.68145806 302.93967252 245.34643448 301.89967624 244 300.875 C239.52534035 297.43016477 235.15298229 293.87442324 230.796875 290.28125 C227.18159263 287.3324722 223.49749074 284.47474015 219.80078125 281.62890625 C219.20652344 281.09136719 218.61226563 280.55382812 218 280 C218 279.34 218 278.68 218 278 C217.01 277.67 216.02 277.34 215 277 C213.24694573 274.9067148 211.61036813 272.82267886 210 270.625 C204.74447713 263.22944369 204.74447713 263.22944369 197 259 C192.98127431 258.8166347 189.00605597 259.2302555 185 259.5625 C183.91976563 259.62501953 182.83953125 259.68753906 181.7265625 259.75195312 C175.31458497 260.23559704 175.31458497 260.23559704 169.87890625 263.453125 C169.25886719 264.29359375 168.63882812 265.1340625 168 266 C167.319375 266.721875 166.63875 267.44375 165.9375 268.1875 C164.22993291 270.66622641 163.34354706 272.53517502 162.3125 275.3125 C158.67356028 284.93483469 153.01754484 293.81481804 147.5625 302.5 C145.05265217 306.60196736 143.87391616 310.28085273 143 315 C143.60328125 315.11601562 144.2065625 315.23203125 144.828125 315.3515625 C147.63695678 316.19017055 149.22106959 317.69658925 151.0078125 319.98828125 C153.06186254 324.15298901 152.82507447 328.52005019 152 333 C150.02426345 336.18667185 148.71215346 337.55051683 145.05078125 338.51171875 C142.68527083 338.83872827 140.38745891 338.9484191 138 339 C137.0821875 339.03867187 136.164375 339.07734375 135.21875 339.1171875 C123.15074636 339.41557221 123.15074636 339.41557221 118.125 335.5625 C112.25554157 327.41047441 115.47735349 308.96652937 116.9230957 299.54199219 C117.91536041 293.86088794 119.16033837 288.28183875 120.5625 282.6875 C122.77937995 273.63329557 123.26774171 264.26957493 124 255 C122.43979133 254.34865075 120.87671421 253.70417036 119.3125 253.0625 C118.44238281 252.70285156 117.57226562 252.34320313 116.67578125 251.97265625 C105.95046945 248.07396627 93.94111934 249.99489613 82.84570312 251.21582031 C75.69096137 251.98570317 68.54895108 252.39178637 61.35888672 252.65795898 C58.02730941 252.79148029 55.1813777 252.93954077 52 254 C50.62255827 256.41328772 50.62255827 256.41328772 49.375 259.375 C45.42882853 267.61006254 39.93356982 274.25448229 33.375 280.5625 C28.34416291 285.46403988 24.27770601 290.94461607 21.5625 297.4375 C22.19611627 302.59694678 25.00749185 305.65597186 28.21484375 309.64453125 C30 312 30 312 30 314 C33.1239289 315.77462628 35.82996343 316.38842635 39.375 316.875 C44.82093933 317.82495746 48.62868028 319.15875411 52.28125 323.53515625 C54.4382131 326.73416571 55.29944003 329.25418987 55 333.125 C54.25124175 336.9503392 52.91165499 339.32442515 50 342 C44.54342351 344.45760768 39.24022046 344.2986068 33.375 344.25 C32.43398437 344.25773437 31.49296875 344.26546875 30.5234375 344.2734375 C29.1621875 344.26957031 29.1621875 344.26957031 27.7734375 344.265625 C26.95278809 344.26336914 26.13213867 344.26111328 25.28662109 344.25878906 C22.76275362 343.97314957 21.14746629 343.34089777 19 342 C18.71125 341.401875 18.4225 340.80375 18.125 340.1875 C16.79176268 337.59509409 14.99625006 336.36812655 12.74609375 334.58203125 C10.70721172 332.73472203 9.1219419 330.73838583 7.4375 328.5625 C3.46749586 323.44288076 -0.86304354 318.7560124 -5.34399414 314.08618164 C-14.42492983 304.51632561 -18.62218088 295.69268728 -18.3046875 282.19921875 C-17.84528874 277.37553173 -16.800229 272.73427479 -15.65625 268.03125 C-14.85893804 264.8653404 -14.85893804 264.8653404 -15 261 C-16.15113281 261.45890625 -17.30226563 261.9178125 -18.48828125 262.390625 C-27.81723215 266.01525553 -36.87059445 268.95272387 -46.7668457 270.58105469 C-52.74599455 271.63935692 -56.05961593 273.51098343 -59.87890625 278.41015625 C-66.46264316 288.7822151 -69.4642054 297.38160847 -69.58544922 309.63110352 C-69.70205709 315.62068637 -71.07591786 319.6414477 -74.9375 324.375 C-79.85844275 326.98611248 -84.58098369 327.18988982 -90 326 C-94.80296731 322.63792288 -97.92026815 317.75856985 -99 312 C-100.04646564 293.82566823 -93.73523703 274.09132844 -85.89892578 257.88769531 C-84.6267593 255.2162148 -83.51860869 252.47848119 -82.375 249.75 C-79.21691408 242.91454558 -74.80717332 238.64573866 -69 234 C-67.45617086 232.29978297 -65.98391439 230.55657155 -64.52734375 228.78125 C-63 227 -63 227 -61.0390625 225.06640625 C-58.96142493 222.96090764 -57.19114894 220.81885326 -55.4375 218.4375 C-54.85871094 217.67308594 -54.27992187 216.90867187 -53.68359375 216.12109375 C-49.19583326 207.80155633 -48.2593699 198.1176398 -47 188.875 C-45.69744841 179.65699108 -44.26780088 170.49847161 -42.515625 161.35546875 C-41.4811903 155.47356869 -41.4811903 155.47356869 -43.13671875 149.9453125 C-43.64847656 149.34460938 -44.16023438 148.74390625 -44.6875 148.125 C-47.26583917 144.93679606 -49.52502554 141.73414293 -51.64892578 138.22875977 C-52.54949418 136.74316364 -53.45502027 135.26056156 -54.36547852 133.78100586 C-70.50195698 107.3267387 -83.8044015 74.09828388 -77 42.5625 C-74.40348986 34.08639237 -69.94421604 23.61969513 -64 17 C-63.34 17 -62.68 17 -62 17 C-61.7525 16.443125 -61.505 15.88625 -61.25 15.3125 C-56.64334088 6.79018064 -49.09283615 3.47654695 -40.75 -0.75 C-40.14752441 -1.05599121 -39.54504883 -1.36198242 -38.92431641 -1.67724609 C-26.89374223 -7.64728025 -11.47714121 -6.83936559 0 0 Z M-54.9375 22.6875 C-64.8390664 34.33640165 -68.49158468 50.35217406 -67.859375 65.33203125 C-65.99509323 83.38719496 -60.09928679 100.70525114 -50.96337891 116.31054688 C-49.7007735 118.52474591 -48.63190637 120.8123615 -47.5625 123.125 C-45.05524739 128.23593802 -41.8663488 132.87503834 -38.65258789 137.56103516 C-37.4183225 139.36338559 -36.20655031 141.17900737 -35 143 C-34.60441895 143.57186035 -34.20883789 144.1437207 -33.80126953 144.73291016 C-28.66413238 152.71321429 -31.4008992 161.63994096 -32.875 170.4375 C-33.04902344 171.51837891 -33.22304687 172.59925781 -33.40234375 173.71289062 C-34.17484532 178.43087241 -34.99119824 183.11016818 -36.08203125 187.765625 C-36.88831877 191.25281851 -37.32841425 194.66300039 -37.63134766 198.22607422 C-39.00676331 214.06745184 -45.61787284 225.91238754 -57 237 C-58.25490234 238.25490234 -58.25490234 238.25490234 -59.53515625 239.53515625 C-67 247 -67 247 -69.00390625 248.671875 C-72.19528279 252.39410674 -73.93152688 256.71530969 -75.875 261.1875 C-76.31191162 262.18894043 -76.74882324 263.19038086 -77.19897461 264.22216797 C-81.89905573 275.4575255 -84.58985637 287.09475163 -87 299 C-87.27251587 300.28849854 -87.27251587 300.28849854 -87.55053711 301.60302734 C-88.40625202 306.16653032 -88.63927999 309.74807668 -86.5 313.9375 C-86.005 314.618125 -85.51 315.29875 -85 316 C-83.68 315.34 -82.36 314.68 -81 314 C-80.97873047 312.40285156 -80.97873047 312.40285156 -80.95703125 310.7734375 C-80.51193449 294.36001893 -75.84661786 278.12681743 -63.625 266.4375 C-57.31368594 261.31220469 -51.04394651 260.18539401 -43.1875 258.75 C-35.83852496 257.38550817 -29.06965183 255.04131746 -22.14135742 252.24902344 C-16.25334807 250.0035911 -12.21321206 249.87938059 -6 251 C-2.94624392 258.44353043 -3.56790507 264.65737508 -5.5 272.3125 C-7.66335452 281.18328862 -8.59169565 289.62627826 -4.328125 297.98828125 C-2.51243938 300.73851094 -0.36532975 302.88067566 2.06054688 305.09716797 C4.00898803 307.00881831 5.61898451 308.97754946 7.265625 311.15234375 C17.13987051 325.82889685 17.13987051 325.82889685 31.59765625 334.09375 C35.50285951 334.23668052 39.17773651 333.77766797 43 333 C43 332.01 43 331.02 43 330 C40.50887028 327.50887028 39.19306219 327.58595641 35.75 327.125 C25.88708202 325.4063641 21.78882333 319.66095343 16 312 C15.175 311.0925 14.35 310.185 13.5 309.25 C10.72535545 303.23827014 10.92209852 296.02865679 12.625 289.6640625 C16.06647116 282.13584433 22.26806628 275.59729157 28.125 269.875 C35.66968072 262.44843561 39.74973138 255.15349401 43 245 C43 244.34 43 243.68 43 243 C44.07258057 242.9498877 45.14516113 242.89977539 46.25024414 242.84814453 C50.30428202 242.6570096 54.35786621 242.45735209 58.41137695 242.25537109 C60.15182744 242.16978305 61.89238695 242.08637861 63.63305664 242.00537109 C73.45902455 241.54650491 83.14398495 240.88567441 92.87646484 239.4284668 C105.79348421 237.65659178 121.75998936 239.57216651 132.70703125 247.1875 C136.26781579 252.17905295 134.99596563 259.38908231 134.4375 265.1875 C134.3130249 266.53642334 134.3130249 266.53642334 134.18603516 267.91259766 C133.3555283 275.72253093 131.66569952 283.23716113 129.875 290.875 C126.94825048 303.42597094 126.33093342 315.1638337 127 328 C131.95 328 136.9 328 142 328 C141.25450036 324.73379848 141.25450036 324.73379848 138.0625 323.0625 C134.97187419 320.98105813 134.3246076 320.29015436 133 317 C131.41411807 307.48470842 136.53274211 300.06361047 141 292 C141.44988281 291.1853125 141.89976562 290.370625 142.36328125 289.53125 C143.12067773 288.17782673 143.88370571 286.82753948 144.65234375 285.48046875 C146.91959781 281.30740693 148.9870323 277.03091573 151.05859375 272.7578125 C153.62963696 267.52316852 156.54457343 262.7788547 160.25 258.25 C162.20464687 256.21195569 162.20464687 256.21195569 162 254 C169.37266812 250.03010178 176.66229795 249.34359854 184.875 248.6875 C186.59396484 248.52024414 186.59396484 248.52024414 188.34765625 248.34960938 C195.20162248 247.79356263 199.76732757 248.08242783 206 251 C207.32648292 251.35962751 208.6588138 251.69981928 210 252 C210 252.66 210 253.32 210 254 C210.845625 254.66 211.69125 255.32 212.5625 256 C216.42797124 259.03912347 218.83117765 262.8949475 221.484375 266.98828125 C221.98453125 267.65214844 222.4846875 268.31601562 223 269 C223.66 269 224.32 269 225 269 C225 269.66 225 270.32 225 271 C226.52837269 272.39599396 228.12650099 273.71587649 229.75 275 C230.74386719 275.79277344 231.73773438 276.58554687 232.76171875 277.40234375 C233.28942871 277.82241699 233.81713867 278.24249023 234.36083984 278.67529297 C236.03938314 280.03182796 237.68853045 281.41767191 239.33203125 282.81640625 C240.14172363 283.50379883 240.14172363 283.50379883 240.96777344 284.20507812 C242.50221496 285.51118573 244.0343585 286.81999159 245.56640625 288.12890625 C247.75263015 290.20317542 247.75263015 290.20317542 250 290 C250.33 290.99 250.66 291.98 251 293 C252.55726859 294.44197626 252.55726859 294.44197626 254.4375 295.6875 C255.05496094 296.12449219 255.67242187 296.56148438 256.30859375 297.01171875 C257.96131105 298.1681636 257.96131105 298.1681636 260 298 C260 298.66 260 299.32 260 300 C260.66 300 261.32 300 262 300 C262 300.66 262 301.32 262 302 C264.0810115 303.64396866 264.0810115 303.64396866 266.6875 305.3125 C269.55587773 307.20350458 271.98142051 308.98102584 274.390625 311.44140625 C277.38032949 314.37292786 280.51298257 316.44183976 284.0625 318.625 C290.78654701 322.8195583 290.78654701 322.8195583 292.90698242 324.61206055 C295.42037919 326.27876539 296.77761617 326.35043046 299.765625 326.29296875 C300.65507812 326.28330078 301.54453125 326.27363281 302.4609375 326.26367188 C303.84152344 326.2259668 303.84152344 326.2259668 305.25 326.1875 C306.65378906 326.16719727 306.65378906 326.16719727 308.0859375 326.14648438 C310.39121327 326.11119954 312.6953106 326.06190281 315 326 C312.73393276 323.46632165 312.73393276 323.46632165 309.4765625 322.59375 C308.06503906 322.54734375 308.06503906 322.54734375 306.625 322.5 C299.40253786 322.26124092 295.6427352 318.88862276 290.4375 314.125 C289.50808594 313.28195312 288.57867187 312.43890625 287.62109375 311.5703125 C285.17630981 309.17289397 283.10079292 306.69714704 281 304 C279.7625 302.7934375 279.7625 302.7934375 278.5 301.5625 C275.89619812 298.89360308 274.06396291 296.09594436 272 293 C271.2678125 292.319375 270.535625 291.63875 269.78125 290.9375 C265.94140785 287.16522106 263.30906873 282.55577504 260.5 278 C259.94441406 277.12988281 259.38882812 276.25976562 258.81640625 275.36328125 C250.8616995 262.54216566 248.23033361 251.54989215 248.1875 236.75 C248.16746529 235.15972711 248.1457171 233.56947494 248.12231445 231.97924805 C248.07970598 228.8088758 248.0516126 225.63887337 248.03515625 222.46826172 C248.01106039 218.44715693 247.92054467 214.42995806 247.8125 210.41015625 C247.7692646 208.21096778 247.7274833 206.01175 247.6875 203.8125 C247.65744873 202.83571289 247.62739746 201.85892578 247.59643555 200.85253906 C247.52142857 191.49892177 250.67070364 184.68845035 257.03125 177.91015625 C266.05558163 169.15440592 275.17679522 164.15980868 287.875 163.5 C291.66151385 163.2828939 291.66151385 163.2828939 295 162 C298.06019207 157.97205488 299.6290766 153.84256523 301 149 C300.38511719 148.26394531 299.77023437 147.52789062 299.13671875 146.76953125 C298.32847656 145.79371094 297.52023437 144.81789062 296.6875 143.8125 C295.88699219 142.84957031 295.08648437 141.88664063 294.26171875 140.89453125 C291.37567371 137.20099174 289.31261261 133.80995086 287.625 129.4375 C284.77151863 123.4012894 280.34455525 121.6028927 274.3125 119.3125 C268.35335444 116.69154847 268.35335444 116.69154847 266.81640625 113.68359375 C266.375 111.25 266.375 111.25 266.2734375 108.953125 C266.18320312 108.30859375 266.09296875 107.6640625 266 107 C265.01 106.34 264.02 105.68 263 105 C262.17822266 105.97839844 262.17822266 105.97839844 261.33984375 106.9765625 C256.39139707 112.43192323 252.38057623 115.72123804 245.5 118.1875 C236.26764992 121.5005553 229.80633286 126.02401315 223 133.0625 C213.9435352 142.3878286 202.09179686 148.47994589 189 149 C188.24332031 149.03996094 187.48664063 149.07992187 186.70703125 149.12109375 C175.33146698 149.43656617 164.61108894 146.96982181 153.6875 144.125 C105.94735787 131.78761794 52.9340126 127.20078431 4.02758789 133.98339844 C-10.97453604 136.05265691 -10.97453604 136.05265691 -18 131 C-20.10780552 129.28823864 -22.09140353 127.60120403 -24.0625 125.75 C-24.58416748 125.26329834 -25.10583496 124.77659668 -25.64331055 124.27514648 C-29.64526812 120.47237853 -33.04652753 116.65446951 -36 112 C-36.58394531 111.08476562 -37.16789062 110.16953125 -37.76953125 109.2265625 C-50.186261 88.8892662 -52.68153282 64.56415505 -47.3125 41.5 C-44.84440348 31.9815123 -40.21470554 24.56929189 -32 19 C-25.1371859 16.7123953 -15.65153559 16.72641564 -8.796875 19.1171875 C-6.1875 20.5 -6.1875 20.5 -3.98046875 21.90625 C-1.79348595 23.32229497 -1.79348595 23.32229497 2 23 C1.62545037 17.75630518 -0.15597394 14.49010039 -4 11 C-21.55065292 -1.36790977 -41.74091264 9.22431492 -54.9375 22.6875 Z " fill="#F9F9F9" transform="translate(170,49)"/>
</svg>
